<svg class="svg-font" viewBox="0 0 56 57" fill="none" xmlns="http://www.w3.org/2000/svg">
<path d="M23.3335 19.1667V33.1667L34.3002 39.9333L36.1668 37.1334L26.8335 31.5334V19.1667H23.3335Z" fill="currentColor"/>
<path d="M41.8132 28.5C42.1649 30.8192 42.0098 33.187 41.3586 35.4405C40.7074 37.694 39.5755 39.7796 38.0409 41.5537C36.5063 43.3278 34.6055 44.7483 32.4692 45.7172C30.333 46.6862 28.0122 47.1807 25.6665 47.1666C16.5665 47.1666 9.33317 39.9333 9.33317 30.8333C9.33317 21.7333 16.5665 14.5 25.6665 14.5C27.2998 14.5 28.8632 14.7333 30.3332 15.1766V10.37C28.8398 10.02 27.2765 9.83331 25.6665 9.83331C13.9998 9.83331 4.6665 19.1666 4.6665 30.8333C4.6665 42.5 13.9998 51.8333 25.6665 51.8333C28.6244 51.8456 31.5513 51.2303 34.2539 50.028C36.9565 48.8257 39.3733 47.0638 41.3447 44.8586C43.3162 42.6534 44.7974 40.0551 45.6907 37.2352C46.5839 34.4153 46.8688 31.4381 46.5265 28.5H41.8132Z" fill="currentColor"/>
<path d="M46.6667 12.1667V5.16669C46.6667 5.16669 46.5 3.5 44.3333 3.5C42.1667 3.5 42 5.16669 42 5.16669V12.1667H35C35 12.1667 33.5 12.5 33.5 14.5C33.5 16.5 35 16.8334 35 16.8334H42V23.8334C42 23.8334 42.1667 25 44.3333 25C46.5 25 46.6667 23.8334 46.6667 23.8334V16.8334H53.6667C53.6667 16.8334 55 16.5 55 14.5C55 12.5 53.6667 12.1667 53.6667 12.1667H46.6667Z" fill="currentColor"/>
</svg>
