<svg class="svg-font" viewBox="0 0 19 19" fill="none" xmlns="http://www.w3.org/2000/svg">
<path d="M16.0312 16.625C15.9533 16.6251 15.876 16.6098 15.804 16.5799C15.732 16.5501 15.6665 16.5062 15.6115 16.4509L2.54904 3.38845C2.44239 3.27619 2.38381 3.12672 2.38579 2.97189C2.38777 2.81706 2.45016 2.66914 2.55965 2.55965C2.66914 2.45016 2.81706 2.38777 2.97189 2.38579C3.12672 2.38381 3.27619 2.44239 3.38845 2.54904L16.451 15.6115C16.5339 15.6946 16.5904 15.8003 16.6133 15.9155C16.6362 16.0306 16.6245 16.15 16.5795 16.2584C16.5346 16.3669 16.4586 16.4596 16.361 16.5248C16.2634 16.5901 16.1486 16.6249 16.0312 16.625ZM9.20312 11.721L7.28122 9.79909C7.27021 9.78817 7.25605 9.78098 7.24074 9.77852C7.22543 9.77605 7.20973 9.77845 7.19585 9.78537C7.18197 9.79229 7.17061 9.80339 7.16335 9.81709C7.1561 9.8308 7.15333 9.84644 7.15542 9.86181C7.23301 10.3604 7.46713 10.8214 7.82395 11.1783C8.18076 11.5351 8.64179 11.7692 9.1404 11.8468C9.15577 11.8489 9.17141 11.8461 9.18512 11.8389C9.19883 11.8316 9.20992 11.8202 9.21684 11.8064C9.22376 11.7925 9.22616 11.7768 9.2237 11.7615C9.22124 11.7462 9.21404 11.732 9.20312 11.721ZM9.79687 7.279L11.7217 9.20312C11.7327 9.21419 11.7469 9.22152 11.7623 9.22407C11.7777 9.22662 11.7935 9.22425 11.8075 9.21731C11.8214 9.21037 11.8329 9.1992 11.8401 9.18539C11.8474 9.17159 11.8501 9.15585 11.8479 9.1404C11.7705 8.64111 11.5362 8.17941 11.179 7.82215C10.8217 7.46488 10.36 7.23059 9.8607 7.1532C9.84523 7.15081 9.82942 7.15337 9.8155 7.16051C9.80158 7.16766 9.79027 7.17901 9.78319 7.19297C9.77611 7.20692 9.77363 7.22275 9.77608 7.2382C9.77854 7.25365 9.78581 7.26793 9.79687 7.279Z" fill="#AAAAAA"/>
<path d="M17.7986 9.87625L17.799 9.87555C17.8705 9.76341 17.9082 9.63312 17.9079 9.50015C17.9075 9.36735 17.869 9.23743 17.7971 9.1258C16.8512 7.66296 15.6267 6.42511 14.262 5.54376L17.7986 9.87625ZM17.7986 9.87625C17.2001 10.8191 16.4758 11.6753 15.6462 12.4214L13.4927 10.2664C13.6115 9.64862 13.5854 9.01073 13.4152 8.40323C13.227 7.73165 12.8691 7.11982 12.3759 6.62665C11.8828 6.13348 11.2709 5.77559 10.5994 5.58742C9.99179 5.41719 9.35382 5.39106 8.73599 5.5099L7.53624 4.31015M17.7986 9.87625L7.53624 4.31015M7.53624 4.31015C8.1734 4.14682 8.8292 4.06343 9.48846 4.0625C11.1019 4.06257 12.7528 4.56953 14.2619 5.54372L7.53624 4.31015ZM8.87186 5.64577L8.87164 5.64555M8.87186 5.64577L8.87197 5.64588L8.87164 5.64555M8.87186 5.64577C8.87179 5.6457 8.87171 5.64562 8.87164 5.64555M8.87186 5.64577L8.87164 5.64555M5.50963 8.73678C5.40683 9.27425 5.41354 9.82766 5.53017 10.3637C5.66092 10.9646 5.92639 11.528 6.30657 12.0114C6.68674 12.4948 7.17171 12.8856 7.72489 13.1543C8.278 13.4229 8.88488 13.5625 9.49978 13.5625L5.50963 8.73678ZM5.50963 8.73678L3.39745 6.62365C2.62069 7.32315 1.89184 8.158 1.21652 9.1247C1.139 9.23603 1.0963 9.36789 1.09386 9.50354C1.09142 9.63924 1.12937 9.77262 1.2029 9.8867L1.20396 9.88835L1.20396 9.88835C2.1489 11.3671 3.36051 12.6055 4.70131 13.4728L4.70142 13.4729C6.20993 14.4492 7.81805 14.9374 9.48749 14.9375C10.1555 14.9357 10.8202 14.8536 11.4673 14.6935L10.2639 13.4903C10.0123 13.5384 9.75651 13.5626 9.50003 13.5625L5.50963 8.73678ZM15.8786 12.654C15.8787 12.6541 15.8788 12.6542 15.8789 12.6543L15.8788 12.6542L15.8786 12.654ZM13.357 10.1305C13.3571 10.1307 13.3573 10.1308 13.3574 10.131L13.3572 10.1307L13.357 10.1305ZM12.1386 14.8675L12.1385 14.8675L12.1386 14.8675L12.1386 14.8675Z" stroke="#AAAAAA"/>
</svg>
