<svg class="svg-font" viewBox="0 0 56 56" fill="none" xmlns="http://www.w3.org/2000/svg">
<path d="M49.5999 25.578C50.7059 27.0247 50.7059 28.9777 49.5999 30.422C46.1162 34.9697 37.7582 44.3334 28.0002 44.3334C18.2422 44.3334 9.88419 34.9697 6.40052 30.422C5.86242 29.7293 5.57031 28.8772 5.57031 28C5.57031 27.1229 5.86242 26.2707 6.40052 25.578C9.88419 21.0304 18.2422 11.6667 28.0002 11.6667C37.7582 11.6667 46.1162 21.0304 49.5999 25.578V25.578Z" stroke="currentColor" stroke-width="4" stroke-linecap="round" stroke-linejoin="round"/>
<path d="M28 35C31.866 35 35 31.866 35 28C35 24.134 31.866 21 28 21C24.134 21 21 24.134 21 28C21 31.866 24.134 35 28 35Z" stroke="currentColor" stroke-width="4" stroke-linecap="round" stroke-linejoin="round"/>
</svg>
