<svg class="svg-font" viewBox="0 0 53 57" fill="none" xmlns="http://www.w3.org/2000/svg">
<path d="M13.9159 32.6445L13.9149 32.6432C13.5461 32.1573 13.6403 31.4546 14.1459 31.0781C14.6526 30.7008 15.3837 30.8052 15.7645 31.306C15.7647 31.3063 15.7649 31.3066 15.7651 31.3068L20.5328 37.6037C20.5331 37.6042 20.5335 37.6046 20.5338 37.6051C21.7134 39.1683 22.35 41.0578 22.35 43V52H11.7566C11.5398 51.2438 11.188 50.5089 10.675 49.8483L10.6716 49.844L2.05084 38.8272L2.04373 38.8181L2.03648 38.8091C1.68921 38.3791 1.5 37.8423 1.5 37.2906V19.375C1.5 18.7648 1.99921 18.25 2.65 18.25C3.30079 18.25 3.8 18.7648 3.8 19.375V31.5484V32.0953L4.15198 32.5139L11.586 41.3538C12.6513 42.6324 14.5736 42.7092 15.7466 41.5473L16.8066 40.4973C17.7981 39.5152 17.9277 37.9432 17.071 36.8117L13.9159 32.6445ZM48.848 32.5139L49.2 32.0953V31.5484V19.375C49.2 18.7648 49.6992 18.25 50.35 18.25C51.0008 18.25 51.5 18.7648 51.5 19.375V37.2906C51.5 37.8423 51.3108 38.3791 50.9635 38.8091L50.9563 38.8181L50.9492 38.8272L42.3284 49.844L42.325 49.8484C41.812 50.5089 41.4602 51.2439 41.2434 52H30.65V43C30.65 41.0575 31.2868 39.1677 32.4667 37.6043C32.4669 37.6041 32.467 37.6039 32.4672 37.6037L37.2349 31.3068C37.2352 31.3064 37.2355 31.306 37.2358 31.3056C37.6167 30.8051 38.3476 30.7009 38.8541 31.0781C39.3597 31.4546 39.4539 32.1573 39.0851 32.6432L39.0841 32.6445L35.929 36.8117C35.0723 37.9432 35.2019 39.5152 36.1934 40.4973L37.2534 41.5473C38.4235 42.7064 40.351 42.6174 41.4113 41.357L41.4115 41.3568L48.848 32.5139Z" stroke="currentColor" stroke-width="3"/>
<path d="M37.4355 10.7008C37.0952 9.91277 36.6045 9.19866 35.9908 8.59846C35.3767 7.99646 34.6526 7.51806 33.858 7.18928C33.034 6.84699 32.1503 6.67179 31.258 6.67385C30.0063 6.67385 28.785 7.01662 27.7236 7.66408C27.4697 7.81896 27.2285 7.98908 27 8.17443C26.7715 7.98908 26.5303 7.81896 26.2764 7.66408C25.215 7.01662 23.9937 6.67385 22.742 6.67385C21.8406 6.67385 20.9672 6.8465 20.142 7.18928C19.3447 7.51935 18.6262 7.99416 18.0092 8.59846C17.3947 9.19798 16.9039 9.91226 16.5645 10.7008C16.2115 11.5209 16.0312 12.3918 16.0312 13.2881C16.0312 14.1336 16.2039 15.0147 16.5467 15.911C16.8336 16.66 17.2449 17.4369 17.7705 18.2215C18.6033 19.4631 19.7484 20.758 21.1703 22.0707C23.5266 24.2467 25.86 25.7498 25.959 25.8108L26.5607 26.1967C26.8273 26.3668 27.1701 26.3668 27.4367 26.1967L28.0385 25.8108C28.1375 25.7473 30.4684 24.2467 32.8271 22.0707C34.249 20.758 35.3941 19.4631 36.227 18.2215C36.7525 17.4369 37.1664 16.66 37.4508 15.911C37.7936 15.0147 37.9662 14.1336 37.9662 13.2881C37.9688 12.3918 37.7885 11.5209 37.4355 10.7008Z" fill="currentColor"/>
</svg>
