<svg class="svg-font" viewBox="0 0 31 31" fill="none" xmlns="http://www.w3.org/2000/svg">
<path d="M15.5 5C11.3594 5 8 8.09917 8 11.9162C8 16.3083 13 23.2684 14.8359 25.6724C14.9121 25.7739 15.012 25.8565 15.1274 25.9134C15.2428 25.9703 15.3705 26 15.5 26C15.6295 26 15.7572 25.9703 15.8726 25.9134C15.988 25.8565 16.0879 25.7739 16.1641 25.6724C18 23.2694 23 16.3118 23 11.9162C23 8.09917 19.6406 5 15.5 5Z" stroke="currentColor" stroke-width="1.9375" stroke-linecap="round" stroke-linejoin="round"/>
<path d="M15.5 15C16.8807 15 18 13.8807 18 12.5C18 11.1193 16.8807 10 15.5 10C14.1193 10 13 11.1193 13 12.5C13 13.8807 14.1193 15 15.5 15Z" stroke="currentColor" stroke-width="1.9375" stroke-linecap="round" stroke-linejoin="round"/>
</svg>
