<svg class="svg-font" viewBox="0 0 129 129" fill="none" xmlns="http://www.w3.org/2000/svg">
<rect width="129" height="129" rx="64.5" fill="#FEE7CD"/>
<path d="M58.7764 71.0558L50.3589 62.6383L45.7764 67.2208L58.7764 80.2208L84.7764 54.2208L80.1939 49.6383L58.7764 71.0558Z" fill="#FCB769"/>
<path d="M65.2764 114.638L45.2044 103.936C39.4822 100.892 34.697 96.3468 31.3624 90.7889C28.0277 85.231 26.2695 78.8699 26.2764 72.3883V30.1383C26.2781 28.4149 26.9635 26.7626 28.1821 25.544C29.4007 24.3254 31.053 23.64 32.7764 23.6383H97.7764C99.4998 23.64 101.152 24.3254 102.371 25.544C103.589 26.7626 104.275 28.4149 104.276 30.1383V72.3883C104.283 78.8699 102.525 85.231 99.1904 90.7889C95.8557 96.3468 91.0706 100.892 85.3484 103.936L65.2764 114.638ZM32.7764 30.1383V72.3883C32.771 77.6917 34.21 82.8964 36.9389 87.4438C39.6678 91.9912 43.5835 95.7096 48.2659 98.1998L65.2764 107.271L82.2869 98.2031C86.9697 95.7126 90.8858 91.9937 93.6147 87.4456C96.3437 82.8976 97.7824 77.6922 97.7764 72.3883V30.1383H32.7764Z" fill="#FCB769"/>
</svg>
