<svg width="76" height="76" viewBox="0 0 76 76" fill="none" xmlns="http://www.w3.org/2000/svg">
<path d="M38 76C58.9868 76 76 58.9868 76 38C76 17.0132 58.9868 0 38 0C17.0132 0 0 17.0132 0 38C0 58.9868 17.0132 76 38 76Z" fill="#5FC657"/>
<path d="M45.9965 75.1032C46.7247 74.9616 47.4487 74.7986 48.1674 74.6146C49.3865 74.2748 50.5879 73.8744 51.767 73.4147C52.9486 72.9575 54.1067 72.4414 55.2367 71.8685C56.3665 71.293 57.4667 70.6614 58.5333 69.9759C59.5982 69.2918 60.6282 68.5549 61.6195 67.7679C62.6133 66.9791 63.567 66.141 64.477 65.2568C65.3844 64.3748 66.2473 63.448 67.0623 62.4798C67.8791 61.5107 68.647 60.5013 69.363 59.4554C70.0783 58.4109 70.7409 57.3313 71.3484 56.2207C71.9555 55.1089 72.5067 53.9674 72.9998 52.8005C73.494 51.6334 73.9295 50.4424 74.3048 49.2318C74.6257 48.1722 74.9001 47.0991 75.1274 46.0156L52.5525 23.4408C48.5268 19.415 43.2698 17.4043 38.0056 17.4043C32.7412 17.4043 27.4721 19.4147 23.4464 23.4408C15.3948 31.4923 15.3948 44.5015 23.4464 52.5531L45.9965 75.1032Z" fill="#12BF13"/>
<path d="M38.002 17.407C43.2664 17.407 48.5293 19.4177 52.555 23.4434C60.6066 31.495 60.6066 44.5042 52.555 52.5557C44.5035 60.6073 31.4943 60.6073 23.4427 52.5557C15.3912 44.5042 15.3912 31.495 23.4427 23.4434C27.4685 19.4177 32.7375 17.407 38.002 17.407ZM47.3783 31.6632C47.0784 31.6907 46.787 31.8059 46.5495 31.991L34.9837 40.6684L29.6214 35.3061C28.4581 34.0944 26.1709 36.3817 27.3825 37.545L33.7158 43.8783C34.2484 44.41 35.1785 44.4768 35.7816 44.0268L48.4483 34.5268C49.5143 33.7508 48.8575 31.682 47.5391 31.6632C47.4855 31.6604 47.4318 31.6604 47.3783 31.6632Z" fill="white"/>
</svg>
