<svg class="svg-font" viewBox="0 0 56 56" fill="none" xmlns="http://www.w3.org/2000/svg">
<path d="M52.6943 42.9466L52.6943 42.9407L52.6943 42.6943C52.6943 41.0385 51.3502 39.6943 49.6943 39.6943H34.2943C32.6822 39.6943 31.3656 40.9683 31.2971 42.5637V42.6971L31.2971 42.701L31.2971 42.7027L31.2999 43.5285C31.3035 43.6126 31.3092 43.6965 31.3169 43.7803C31.4626 45.0845 31.932 46.3317 32.6823 47.4084L52.6943 42.9466ZM52.6943 42.9466C52.6976 43.2272 52.689 43.5078 52.6684 43.7877M52.6943 42.9466L52.6684 43.7877M52.6684 43.7877C52.5218 45.0905 52.0525 46.3363 51.3029 47.4121C49.8854 49.4403 47.1397 51.2943 41.9943 51.2943C36.8523 51.2943 34.1034 49.4379 32.6829 47.4092L52.6684 43.7877ZM25.5284 7.06107L25.5285 7.06105C26.2076 6.45088 27.0883 6.11334 28.0013 6.11334C28.9143 6.11334 29.795 6.45088 30.4741 7.06105L30.4742 7.06107L45.874 20.8957C46.26 21.2429 46.5687 21.6674 46.7799 22.1416C46.9709 22.5707 47.0784 23.0317 47.097 23.5001C46.3855 23.0022 45.6035 22.6102 44.7754 22.3381C44.7412 22.3023 44.7057 22.2679 44.6689 22.2349L29.2693 8.39761L29.2691 8.39744C28.9204 8.08446 28.4684 7.91135 27.9999 7.91135C27.5314 7.91135 27.0794 8.08446 26.7307 8.39744L26.7305 8.39761L11.3307 22.235C11.1322 22.4132 10.9735 22.6311 10.8648 22.8747L11.3214 23.0784L10.8648 22.8747C10.7561 23.1182 10.6999 23.3819 10.6999 23.6486V23.6487V43.3999C10.6999 43.9038 10.9001 44.3871 11.2564 44.7434C11.6127 45.0997 12.096 45.2999 12.5999 45.2999H19.5999C20.1038 45.2999 20.5871 45.0997 20.9434 44.7434C21.2997 44.3871 21.4999 43.9038 21.4999 43.3999V33.5999C21.4999 32.6186 21.8897 31.6775 22.5836 30.9836C23.2775 30.2897 24.2186 29.8999 25.1999 29.8999H30.7999C31.7812 29.8999 32.7223 30.2897 33.4162 30.9836C34.1101 31.6775 34.4999 32.6186 34.4999 33.5999V35.8943H34.2943C33.7468 35.8943 33.2125 35.9581 32.6999 36.0811V33.5999C32.6999 33.096 32.4997 32.6127 32.1434 32.2564C31.7871 31.9001 31.3038 31.6999 30.7999 31.6999H25.1999C24.696 31.6999 24.2127 31.9001 23.8564 32.2564C23.5001 32.6127 23.2999 33.096 23.2999 33.5999V43.3999C23.2999 44.3812 22.9101 45.3223 22.2162 46.0162C21.5223 46.7101 20.5812 47.0999 19.5999 47.0999H12.5999C11.6186 47.0999 10.6775 46.7101 9.98361 46.0162C9.28972 45.3223 8.8999 44.3812 8.8999 43.3999V23.6487C8.8999 22.5975 9.34382 21.5991 10.128 20.8963L10.1284 20.8959L25.5284 7.06107ZM38.3881 27.1881C39.3445 26.2316 40.6417 25.6943 41.9943 25.6943C43.3469 25.6943 44.6441 26.2316 45.6005 27.1881C46.557 28.1445 47.0943 29.4417 47.0943 30.7943C47.0943 32.1469 46.557 33.4441 45.6005 34.4006C44.6441 35.357 43.3469 35.8943 41.9943 35.8943C40.6417 35.8943 39.3445 35.357 38.3881 34.4006C37.4316 33.4441 36.8943 32.1469 36.8943 30.7943C36.8943 29.4417 37.4316 28.1445 38.3881 27.1881Z" fill="currentColor" stroke="currentColor"/>
</svg>
