<svg class="svg-font" viewBox="0 0 31 31" fill="none" xmlns="http://www.w3.org/2000/svg">
<path d="M26.6628 23.7917L21.6755 18.8044C22.8762 17.206 23.5244 15.2603 23.5222 13.2611C23.5222 8.15457 19.3677 4 14.2611 4C9.15457 4 5 8.15457 5 13.2611C5 18.3677 9.15457 22.5222 14.2611 22.5222C16.2603 22.5244 18.206 21.8762 19.8044 20.6755L24.7917 25.6628C25.0442 25.8885 25.3734 26.009 25.7119 25.9995C26.0504 25.99 26.3724 25.8513 26.6119 25.6119C26.8513 25.3724 26.99 25.0504 26.9995 24.7119C27.009 24.3734 26.8885 24.0442 26.6628 23.7917ZM7.64603 13.2611C7.64603 11.9528 8.034 10.6738 8.76088 9.58598C9.48775 8.49813 10.5209 7.65026 11.7296 7.14958C12.9384 6.6489 14.2685 6.5179 15.5517 6.77314C16.8349 7.02839 18.0136 7.65841 18.9387 8.58355C19.8638 9.50868 20.4939 10.6874 20.7491 11.9706C21.0043 13.2538 20.8733 14.5839 20.3727 15.7926C19.872 17.0014 19.0241 18.0345 17.9363 18.7614C16.8484 19.4882 15.5695 19.8762 14.2611 19.8762C12.5073 19.8741 10.826 19.1765 9.58587 17.9364C8.34576 16.6963 7.64814 15.0149 7.64603 13.2611Z" fill="currentColor"/>
</svg>
